<svg width="28" height="28" fill="none" xmlns="http://www.w3.org/2000/svg"><path d="M14 2.998c-6.066 0-11.001 4.935-11.001 11 0 1.803.474 3.487 1.244 4.988l-1.193 4.27c-.278.991.703 1.972 1.695 1.695l4.273-1.193C10.518 24.526 12.2 25 14 25c6.066 0 11-4.935 11-11S20.066 2.998 14 2.998zm0 1.65a9.339 9.339 0 019.35 9.35A9.339 9.339 0 0114 23.35a9.294 9.294 0 01-4.543-1.18.825.825 0 00-.623-.074L4.771 23.23l1.135-4.061a.825.825 0 00-.074-.625A9.29 9.29 0 014.649 14a9.339 9.339 0 019.35-9.351zm-3.72 4.401a.966.966 0 00-.7.33c-.24.26-.92.896-.92 2.189 0 1.292.941 2.54 1.073 2.717.13.174 1.817 2.912 4.487 3.965 2.22.875 2.67.7 3.152.657.482-.043 1.555-.635 1.774-1.249.219-.614.22-1.139.155-1.247-.066-.11-.241-.176-.504-.308-.262-.131-1.553-.766-1.794-.854-.241-.087-.417-.132-.592.131s-.678.855-.832 1.03c-.153.176-.306.198-.57.066-.263-.132-1.108-.409-2.112-1.304-.781-.696-1.307-1.556-1.46-1.819-.153-.262-.017-.406.114-.536.119-.118.263-.306.395-.46.13-.153.173-.262.26-.437.088-.174.045-.328-.02-.46-.066-.131-.577-1.431-.81-1.95-.197-.438-.404-.447-.592-.454a13.337 13.337 0 00-.504-.007z" fill="#F2F2F2"/></svg>