<svg width="28" height="28" viewBox="0 0 28 28" fill="none" xmlns="http://www.w3.org/2000/svg">
<path d="M13.9998 2.99756C7.93388 2.99756 2.99854 7.9329 2.99854 13.9989C2.99854 15.8005 3.47308 17.4845 4.24263 18.986L3.0501 23.2554C2.77235 24.2474 3.75318 25.2282 4.74542 24.9507L9.0181 23.7582C10.5183 24.5262 12.1999 25.0002 13.9998 25.0002C20.0658 25.0002 25.0011 20.0648 25.0011 13.9989C25.0011 7.9329 20.0658 2.99756 13.9998 2.99756ZM13.9998 4.64775C19.1739 4.64775 23.3509 8.82479 23.3509 13.9989C23.3509 19.1729 19.1739 23.35 13.9998 23.35C12.3488 23.35 10.8043 22.9206 9.4575 22.1703C9.26766 22.0645 9.04375 22.0379 8.83438 22.0962L4.77121 23.2296L5.90572 19.1686C5.96432 18.9589 5.93768 18.7346 5.83159 18.5444C5.07979 17.1967 4.64873 15.6515 4.64873 13.9989C4.64873 8.82479 8.82576 4.64775 13.9998 4.64775ZM10.2815 9.04935C10.1061 9.04935 9.82253 9.11517 9.58105 9.3781C9.34012 9.63993 8.66141 10.275 8.66141 11.5676C8.66141 12.8603 9.60214 14.1086 9.73361 14.2846C9.86453 14.459 11.5506 17.1972 14.2212 18.25C16.4401 19.1247 16.8914 18.9505 17.3733 18.9065C17.8551 18.8636 18.9281 18.272 19.147 17.6581C19.366 17.0442 19.3661 16.5191 19.3017 16.4108C19.2363 16.3013 19.0608 16.235 18.7979 16.1035C18.5355 15.972 17.2446 15.3369 17.0037 15.2494C16.7628 15.1619 16.5867 15.1175 16.4117 15.3805C16.2368 15.6434 15.7337 16.2348 15.5802 16.4097C15.4267 16.5857 15.2737 16.6078 15.0108 16.4763C14.7473 16.3437 13.902 16.067 12.8976 15.172C12.1165 14.4762 11.591 13.6161 11.4375 13.3532C11.2846 13.0913 11.421 12.9474 11.5525 12.8171C11.6707 12.6994 11.8153 12.5107 11.9468 12.3573C12.0771 12.2038 12.1204 12.0949 12.2078 11.92C12.2953 11.7456 12.2518 11.5916 12.1863 11.4602C12.1209 11.3287 11.6101 10.029 11.3763 9.50917C11.1799 9.07242 10.973 9.06295 10.7854 9.0558C10.6325 9.04974 10.4564 9.04935 10.2815 9.04935Z" fill="#F2F2F2"/>
</svg>
